<svg width="314" height="314" viewBox="0 0 314 314" fill="none" xmlns="http://www.w3.org/2000/svg">
<path fill-rule="evenodd" clip-rule="evenodd" d="M166.509 9.87781C164.186 -0.625936 149.212 -0.625936 146.888 9.87781L145.912 9.66184L146.888 9.87786C144.089 22.5317 127.231 25.2017 120.659 14.032C115.204 4.76042 100.962 9.38773 101.998 20.0954C103.247 32.995 88.0391 40.7435 78.3366 32.1515L78.9858 31.4184L78.3366 32.1515C70.2832 25.0194 58.1682 33.8214 62.4625 43.6846C67.6362 55.5673 55.5671 67.6354 43.6846 62.4625L44.0838 61.5456L43.6846 62.4625C33.8215 58.1683 25.0193 70.2825 32.1515 78.3371C40.7437 88.0386 32.9948 103.246 20.0954 101.998L20.0953 101.998C9.38791 100.961 4.76026 115.203 14.032 120.659L14.0321 120.659C25.2015 127.232 22.5319 144.089 9.87777 146.888C-0.625936 149.211 -0.625936 164.186 9.8778 166.509C22.5318 169.308 25.2016 186.166 14.032 192.739C4.76042 198.194 9.38773 212.436 20.0954 211.4C32.995 210.151 40.7435 225.359 32.1515 235.061L31.4966 234.481L32.1515 235.061C25.0195 243.114 33.8212 255.229 43.6846 250.935C55.5671 245.762 67.6362 257.83 62.4624 269.713C58.1682 279.576 70.2833 288.378 78.3366 281.246C88.0391 272.654 103.247 280.403 101.998 293.301C100.962 304.009 115.204 308.637 120.659 299.366C127.231 288.196 144.089 290.865 146.888 303.519L145.912 303.735L146.888 303.519C149.212 314.023 164.186 314.023 166.509 303.519L167.46 303.73L166.509 303.519C169.309 290.865 186.166 288.196 192.738 299.366C198.193 308.637 212.435 304.009 211.399 293.301C210.151 280.403 225.358 272.654 235.061 281.246L234.524 281.852L235.061 281.246C243.114 288.378 255.23 279.576 250.935 269.713C245.761 257.83 257.83 245.762 269.712 250.935C279.576 255.229 288.378 243.114 281.246 235.061C272.654 225.359 280.402 210.151 293.302 211.4C304.01 212.436 308.637 198.194 299.365 192.739C288.196 186.166 290.865 169.308 303.52 166.509C314.023 164.186 314.023 149.211 303.52 146.888C290.865 144.089 288.196 127.232 299.365 120.659L299.788 121.377L299.365 120.659C308.638 115.203 304.01 100.961 293.302 101.998C280.402 103.246 272.654 88.0385 281.246 78.3371C288.378 70.2825 279.576 58.1682 269.712 62.4625C257.83 67.6354 245.761 55.5672 250.935 43.6846C255.23 33.8214 243.114 25.0194 235.061 32.1515C225.358 40.7435 210.151 32.995 211.399 20.0954C212.435 9.38773 198.194 4.76042 192.738 14.032C186.166 25.2017 169.309 22.5317 166.509 9.87786L167.485 9.66184L166.509 9.87781ZM144.936 9.44587C147.721 -3.14862 165.676 -3.14862 168.462 9.44587C170.869 20.3261 185.363 22.6217 191.014 13.0177C197.556 1.90061 214.632 7.44911 213.39 20.288L212.395 20.1917L213.39 20.288C212.316 31.3794 225.392 38.0419 233.735 30.6542C243.391 22.1026 257.918 32.6563 252.769 44.483L251.852 44.0838L252.769 44.483C248.32 54.6999 258.697 65.0767 268.914 60.6287C280.741 55.4796 291.295 70.0055 282.744 79.6629L281.995 79L282.744 79.6631C275.356 88.0044 282.018 101.08 293.109 100.008C305.949 98.7642 311.497 115.841 300.38 122.382L299.872 121.52L300.38 122.382C290.775 128.034 293.071 142.529 303.952 144.935L303.777 145.724L303.952 144.935C316.545 147.721 316.545 165.676 303.952 168.462L303.777 167.673L303.952 168.462C293.071 170.868 290.775 185.364 300.38 191.015C311.497 197.556 305.949 214.633 293.109 213.391C282.018 212.317 275.356 225.393 282.744 233.735C291.295 243.392 280.741 257.917 268.914 252.768C258.697 248.32 248.32 258.698 252.769 268.915C257.918 280.741 243.391 291.295 233.735 282.743C225.392 275.355 212.316 282.018 213.39 293.109L212.59 293.186L213.39 293.109C214.632 305.948 197.556 311.497 191.014 300.38C185.363 290.776 170.869 293.071 168.462 303.951C165.676 316.546 147.721 316.546 144.936 303.951C142.528 293.071 128.034 290.776 122.383 300.38L121.521 299.873L122.383 300.38C115.842 311.497 98.765 305.948 100.007 293.109L101.003 293.205L100.007 293.109C101.081 282.018 88.0051 275.355 79.6626 282.743C70.0061 291.295 55.4797 280.74 60.6287 268.915C65.0772 258.698 54.7 248.32 44.483 252.768C32.6565 257.917 22.1025 243.392 30.6542 233.735C38.0419 225.393 31.3794 212.317 20.288 213.391C7.44911 214.633 1.90061 197.556 13.0177 191.015C22.6218 185.364 20.326 170.868 9.44586 168.462C-3.14862 165.676 -3.14862 147.721 9.44586 144.935L9.66183 145.911L9.4459 144.935C20.3259 142.529 22.6219 128.034 13.0177 122.382C1.90079 115.841 7.44895 98.7642 20.2881 100.008C31.3796 101.08 38.0417 88.0043 30.6542 79.663L30.6542 79.663C22.1027 70.0056 32.6563 55.4796 44.483 60.6287C54.7 65.0767 65.0772 54.6999 60.6287 44.483L61.5456 44.0838L60.6287 44.483C55.4797 32.6564 70.0062 22.1026 79.6626 30.6542L78.9996 31.4028L79.6626 30.6542C88.0051 38.0419 101.081 31.3794 100.007 20.288L100.007 20.288C98.765 7.44911 115.842 1.90061 122.383 13.0177C128.034 22.6217 142.528 20.3261 144.936 9.44587Z" fill="#40464F"/>
<path fill-rule="evenodd" clip-rule="evenodd" d="M157.835 33.4388C157.729 32.0335 155.668 32.0336 155.562 33.439C155.091 39.7111 146.069 40.1829 144.945 33.9953C144.693 32.6086 142.643 32.8245 142.685 34.2327L142.685 34.233C142.871 40.5185 133.948 41.9338 132.183 35.8961L133.143 35.6155L132.183 35.8962C132.183 35.8962 132.183 35.8961 132.183 35.8961C131.786 34.5413 129.771 34.9746 129.96 36.3684L129.96 36.3688C130.802 42.6003 122.076 44.9407 119.69 39.1205L120.58 38.7555L119.69 39.1204C119.155 37.8159 117.195 38.4546 117.529 39.8226L117.529 39.8228C119.018 45.9323 110.584 49.1718 107.603 43.6331L108.483 43.159L107.602 43.633C107.602 43.633 107.603 43.6331 107.603 43.6331C106.933 42.3902 105.052 43.2328 105.527 44.5572L105.527 44.5575C107.646 50.4775 99.597 54.5813 96.0531 49.3844C96.0531 49.3844 96.0531 49.3845 96.0531 49.3845L96.8697 48.8276L96.0531 49.3844C95.26 48.2217 93.473 49.2494 94.0846 50.5209C94.0846 50.5208 94.0845 50.5207 94.0845 50.5206L93.1834 50.9544L94.0846 50.5209C96.8125 56.1881 89.2352 61.1082 85.1679 56.3117L85.9305 55.6648L85.1678 56.3115C85.1679 56.3116 85.1679 56.3116 85.1679 56.3117C84.2546 55.235 82.59 56.45 83.3297 57.6471L83.3298 57.6473C86.6343 62.9987 79.6131 68.6831 75.0659 64.3386L75.0658 64.3385C74.0489 63.3666 72.5146 64.7422 73.3772 65.8589L72.586 66.4704L73.3773 65.859C73.3773 65.859 73.3773 65.8589 73.3772 65.8589C77.2227 70.8343 70.8366 77.2244 65.8595 73.3777L66.4711 72.5865L65.8595 73.3777C64.7438 72.5153 63.3652 74.0478 64.3384 75.0662L63.6206 75.7524L64.3385 75.0663C64.3385 75.0662 64.3384 75.0662 64.3384 75.0662C68.6843 79.6126 62.9982 86.6344 57.6474 83.3292L58.1727 82.4783L57.6472 83.3291C57.6472 83.3291 57.6473 83.3291 57.6474 83.3292C56.4454 82.5871 55.2396 84.2584 56.3114 85.1671L56.3116 85.1673C61.1084 89.2357 56.1879 96.8119 50.5208 94.085L50.5206 94.0849C49.2513 93.4738 48.2199 95.2581 49.3845 96.0525L49.3846 96.0525C54.5798 99.5966 50.4792 107.647 44.5575 105.526L44.8945 104.584M44.895 104.583L44.8945 104.584L44.5573 105.526C44.5574 105.526 44.5575 105.526 44.5575 105.526C43.2288 105.05 42.394 106.935 43.6331 107.602L43.159 108.482L43.6332 107.602C49.1701 110.584 45.9341 119.019 39.8226 117.528C39.8227 117.528 39.8228 117.528 39.823 117.528L40.0593 116.558L39.8226 117.528C38.4504 117.194 37.8198 119.156 39.1204 119.689L39.1206 119.689C44.9387 122.076 42.6023 130.803 36.3688 129.96L36.5026 128.969L36.3685 129.96C36.3686 129.96 36.3687 129.96 36.3688 129.96C34.9716 129.771 34.5441 131.788 35.8961 132.183L35.6155 133.143L35.8962 132.183C35.8961 132.183 35.8961 132.183 35.8961 132.183M33.4388 155.563L33.3639 154.565L33.439 155.563C33.4389 155.563 33.4388 155.563 33.4388 155.563ZM33.4388 155.563C32.0302 155.669 32.0373 157.73 33.4386 157.835L33.439 157.835C39.7102 158.307 40.1839 167.328 33.9953 168.453L33.9953 168.453C32.6086 168.705 32.8245 170.755 34.2327 170.713L34.2625 171.712L34.2328 170.713C40.5205 170.526 41.9318 179.449 35.8963 181.215L35.8958 181.215C34.5481 181.609 34.9677 183.626 36.3685 183.437L36.5026 184.428L36.3688 183.437C36.3687 183.437 36.3686 183.437 36.3685 183.437C42.6022 182.594 44.9388 191.321 39.1206 193.708L39.1204 193.708C37.8198 194.241 38.4504 196.203 39.8226 195.869L40.0593 196.839L39.823 195.869C39.8228 195.869 39.8227 195.869 39.8226 195.869C45.934 194.378 49.1701 202.814 43.6332 205.795C42.394 206.462 43.2288 208.347 44.5575 207.871C44.5575 207.871 44.5574 207.871 44.5573 207.871L44.8945 208.813M44.895 208.814L44.8945 208.813L44.5575 207.871C50.4793 205.75 54.5796 213.801 49.3846 217.345L48.821 216.519L49.3845 217.345C48.2199 218.139 49.2513 219.923 50.5206 219.312L50.5208 219.312C56.1878 216.585 61.1084 224.161 56.3116 228.23L56.3114 228.23C55.2362 229.142 56.449 230.808 57.6471 230.068L58.1727 230.919L57.6472 230.068C62.9981 226.762 68.6844 233.784 64.3385 238.331C63.3652 239.349 64.7437 240.882 65.8595 240.019L66.4711 240.811L65.8595 240.019C70.8366 236.173 77.2227 242.563 73.3772 247.538C73.3773 247.538 73.3773 247.538 73.3774 247.538L72.586 246.927L73.3772 247.538C72.5152 248.654 74.0482 250.031 75.0659 249.059L75.7567 249.782L75.066 249.059C75.0659 249.059 75.0659 249.059 75.0659 249.059C79.613 244.714 86.6344 250.399 83.3298 255.75L83.3297 255.75C82.5895 256.948 84.2551 258.162 85.1679 257.085C89.2346 252.29 96.8128 257.209 94.0846 262.876L93.1834 262.443L94.0844 262.877C93.4729 264.149 95.2608 265.175 96.0531 264.013C99.5972 258.816 107.646 262.92 105.527 268.84L105.527 268.841C105.053 270.162 106.932 271.01 107.603 269.764C110.584 264.224 119.018 267.467 117.529 273.575L117.529 273.575C117.196 274.94 119.154 275.583 119.69 274.277L120.524 274.618L119.69 274.277C122.076 268.458 130.802 270.796 129.96 277.028L129.96 277.028C129.771 278.424 131.787 278.856 132.183 277.502C133.948 271.465 142.871 272.878 142.685 279.164L142.685 279.164C142.643 280.573 144.693 280.789 144.945 279.402C146.069 273.215 155.091 273.686 155.562 279.959L154.565 280.034L155.562 279.959C155.562 279.959 155.562 279.959 155.562 279.959C155.668 281.363 157.729 281.363 157.835 279.959M157.835 33.4388C157.835 33.4389 157.835 33.4389 157.835 33.439L158.832 33.3639L157.835 33.4388ZM153.568 33.2888C153.859 29.4169 159.538 29.4169 159.83 33.2891C160.125 37.2199 165.78 37.5174 166.485 33.6378M275.036 121.54C271.387 123.037 272.855 128.506 276.761 127.978L276.761 127.978C280.607 127.458 281.791 133.013 278.063 134.103L277.819 133.27L278.062 134.103C274.278 135.209 275.164 140.803 279.105 140.685C282.986 140.57 283.581 146.218 279.759 146.912C275.88 147.617 276.177 153.273 280.108 153.568L280.108 153.568C283.977 153.859 283.984 159.538 280.108 159.829C276.176 160.125 275.881 165.78 279.759 166.485M51.388 221.114C47.8886 222.799 45.0503 217.88 48.2575 215.692C51.5149 213.47 48.9428 208.425 45.2317 209.754L45.2314 209.754C41.5778 211.062 39.2643 205.876 42.6849 204.034C46.1572 202.164 44.1259 196.878 40.2966 197.812L40.2962 197.812C36.5269 198.73 34.7661 193.331 38.3618 191.857C42.0103 190.36 40.5426 184.891 36.6368 185.419L36.6365 185.419C32.793 185.938 31.6036 180.385 35.3352 179.295C39.1199 178.188 38.2319 172.595 34.2923 172.712C30.4108 172.828 29.8174 167.179 33.6378 166.485L33.8165 167.469L33.6377 166.485C33.6377 166.485 33.6378 166.485 33.6378 166.485C37.5163 165.78 37.2209 160.125 33.2892 159.829L33.3639 158.832L33.2888 159.829C33.289 159.829 33.2891 159.829 33.2892 159.829M33.6378 146.912C29.8174 146.218 30.4109 140.57 34.2922 140.685C38.2331 140.803 39.1188 135.209 35.3349 134.103L35.3348 134.103C31.6076 133.013 32.7891 127.458 36.6365 127.978L36.6368 127.978C40.5426 128.506 42.0102 123.037 38.3618 121.54C34.7661 120.066 36.5269 114.667 40.2962 115.585L40.2966 115.585C44.126 116.519 46.1572 111.233 42.6849 109.363C39.2643 107.521 41.5778 102.335 45.2314 103.643L45.2317 103.643C48.9428 104.972 51.5149 99.9269 48.2575 97.7047C45.0502 95.5171 47.8887 90.5981 51.3882 92.2829C54.9406 93.992 58.0249 89.243 55.018 86.6925C52.054 84.1795 55.3974 79.5896 58.6981 81.6274L58.6983 81.6275C62.0526 83.6997 65.6166 79.2978 62.8927 76.4482L62.8926 76.4481C60.2097 73.6408 64.0101 69.4204 67.0826 71.7953C70.2011 74.2056 74.2064 70.2021 71.7948 67.082L71.7947 67.0818C69.4225 64.0116 73.6389 60.2083 76.4477 62.8926C79.2988 65.6165 83.6989 62.0521 81.6282 58.6984M75.7598 63.6123L75.7567 63.6156L75.7598 63.6123C146.219 29.8175 140.57 30.4109 140.686 34.2923C140.802 38.2341 135.208 39.1179 134.102 35.3349L134.102 35.3348C133.013 31.6104 127.457 32.7862 127.978 36.6369C128.506 40.5447 123.035 42.0083 121.54 38.3618C120.068 34.7701 114.665 36.5228 115.586 40.2964C116.52 44.1278 111.232 46.1554 109.364 42.6851L109.363 42.6849C107.524 39.2682 102.333 41.5736 103.644 45.2315C104.973 48.9444 99.9256 51.5133 97.7054 48.2576L97.7054 48.2576C95.5165 45.0482 90.6002 47.8907 92.2823 51.3878L92.2824 51.3881C93.9926 54.9405 89.2428 58.025 86.6933 55.0181L86.6931 55.0179C84.1827 52.0585 79.586 55.3926 81.6281 58.6981M153.568 33.2888L153.568 33.2891ZM153.568 33.2891C153.273 37.2198 147.618 37.5173 146.913 33.6378Z" fill="#40464F"/>
<path fill-rule="evenodd" clip-rule="evenodd" d="M158.974 54.6355C158.436 52.1995 154.962 52.1995 154.423 54.6356L149.926 74.9673C148.641 80.7765 140.901 82.0032 137.884 76.8749L127.324 58.9279C126.058 56.7774 122.755 57.8505 122.995 60.3343L125.001 81.0597C125.573 86.9828 118.592 90.5403 114.137 86.5952L98.5488 72.7901C98.5488 72.7901 98.5489 72.7902 98.5488 72.7901C96.6802 71.1362 93.8704 73.1781 94.8662 75.4657L103.178 94.5577C105.554 100.013 100.013 105.554 94.5571 103.179C94.5571 103.179 94.5571 103.179 94.5571 103.179L75.4652 94.8668C73.1765 93.8705 71.1364 96.6812 72.7904 98.5479L86.5958 114.137C90.5408 118.592 86.9823 125.574 81.0601 125L60.3342 122.995C57.8505 122.755 56.7773 126.059 58.9277 127.324C58.9277 127.324 58.9277 127.324 58.9277 127.324L76.8743 137.883C82.0026 140.901 80.776 148.641 74.9668 149.926L54.6357 154.423C54.6356 154.423 54.6357 154.423 54.6357 154.423C52.1995 154.962 52.1993 158.435 54.6358 158.974L74.9665 163.472C74.9666 163.472 74.9665 163.472 74.9665 163.472C80.7775 164.756 82.0021 172.497 76.8743 175.514L58.9278 186.074C56.7776 187.339 57.8506 190.643 60.3341 190.402L81.0601 188.397C81.0602 188.397 81.0601 188.397 81.0601 188.397C86.9822 187.823 90.5408 194.805 86.5958 199.26L72.7906 214.849C71.1366 216.716 73.1765 219.527 75.4651 218.53L94.5571 210.218C100.013 207.843 105.553 213.385 103.178 218.841L94.8662 237.931C93.8704 240.219 96.68 242.261 98.5487 240.607C98.5487 240.607 98.5486 240.607 98.5487 240.607L114.137 226.802C118.592 222.857 125.573 226.414 125.001 232.337L122.995 253.063C122.755 255.547 126.058 256.62 127.324 254.47L137.884 236.523C137.884 236.523 137.884 236.523 137.884 236.523C140.901 231.394 148.641 232.621 149.926 238.43L154.423 258.762C154.962 261.198 158.436 261.198 158.974 258.762L163.471 238.43C164.757 232.621 172.496 231.394 175.513 236.523C175.513 236.523 175.513 236.523 175.513 236.523L186.073 254.47C187.339 256.62 190.642 255.547 190.402 253.063L188.396 232.337C187.824 226.414 194.805 222.857 199.26 226.802L214.848 240.607C216.717 242.261 219.527 240.219 218.531 237.931L210.219 218.84C207.843 213.385 213.384 207.843 218.84 210.218L237.932 218.53C240.221 219.527 242.261 216.716 240.607 214.849L226.801 199.26C222.856 194.805 226.415 187.823 232.337 188.397C232.337 188.397 232.337 188.397 232.337 188.397L253.063 190.402C255.547 190.643 256.62 187.339 254.469 186.074L236.523 175.514C231.395 172.497 232.621 164.756 238.43 163.472C238.43 163.472 238.43 163.472 238.43 163.472L258.761 158.974C261.197 158.435 261.198 154.962 258.761 154.423C258.761 154.423 258.761 154.423 258.761 154.423L238.43 149.926C232.621 148.641 231.394 140.901 236.523 137.883L254.469 127.324C256.62 126.059 255.547 122.755 253.063 122.995L232.337 125C226.415 125.574 222.856 118.592 226.801 114.137L240.607 98.5481C242.261 96.6813 240.221 93.8705 237.932 94.8668L218.84 103.179C213.384 105.554 207.843 100.013 210.219 94.5577L218.531 75.4657C219.527 73.178 216.717 71.1359 214.848 72.7901L199.26 86.5952C194.805 90.5403 187.824 86.9829 188.396 81.0597L190.402 60.3343C190.642 57.8505 187.339 56.7774 186.073 58.9279L175.513 76.8749C172.496 82.0032 164.757 80.7765 163.471 74.9673L158.974 54.6355ZM160.927 54.2039C159.926 49.6768 153.471 49.6766 152.47 54.2041L147.973 74.5354C147.08 78.5713 141.704 79.4229 139.607 75.8606L129.047 57.9136C126.696 53.9174 120.558 55.9122 121.004 60.5267L123.01 81.2522C123.408 85.3675 118.557 87.8385 115.463 85.098L99.8746 71.2927C96.4033 68.2197 91.1818 72.0127 93.0325 76.264L101.344 95.356C102.995 99.1461 99.1455 102.995 95.3555 101.345L76.2635 93.033C72.0132 91.1828 68.2182 96.403 71.2933 99.8741C71.2932 99.874 71.2933 99.8741 71.2933 99.8741L85.0985 115.463C87.839 118.558 85.367 123.408 81.253 123.01L60.5267 121.005C55.912 120.559 53.9175 126.696 57.9135 129.048L75.8601 139.607C79.4224 141.703 78.5707 147.081 74.5348 147.974L54.2037 152.47C49.6769 153.472 49.6766 159.925 54.2037 160.927L74.5348 165.425C78.571 166.317 79.4229 171.694 75.8601 173.79L57.9137 184.35C53.9174 186.7 55.9118 192.84 60.5267 192.392C60.5266 192.392 60.5268 192.392 60.5267 192.392L81.2529 190.387C85.367 189.989 87.8391 194.839 85.0985 197.934L71.2934 213.523C71.2935 213.523 71.2934 213.523 71.2934 213.523C68.2183 216.994 72.0131 222.214 76.2635 220.364L95.3555 212.052C99.1452 210.402 102.995 214.252 101.345 218.042L93.0325 237.133C91.1818 241.384 96.4031 245.177 99.8745 242.104L115.463 228.299C118.557 225.559 123.408 228.03 123.01 232.145L121.004 252.871C120.558 257.486 126.696 259.479 129.047 255.484L139.607 237.538C141.704 233.974 147.08 234.826 147.973 238.862L152.47 259.194C153.471 263.721 159.926 263.721 160.927 259.194L165.424 238.862C166.317 234.826 171.693 233.974 173.79 237.537L184.35 255.484C186.701 259.479 192.839 257.486 192.393 252.871L190.387 232.145C189.989 228.03 194.84 225.559 197.934 228.299L213.522 242.104C216.994 245.177 222.215 241.384 220.365 237.133L212.053 218.041C210.403 214.252 214.252 210.402 218.042 212.052L237.134 220.364C241.384 222.214 245.179 216.994 242.104 213.523C242.104 213.523 242.104 213.523 242.104 213.523L228.299 197.934C225.558 194.839 228.03 189.989 232.144 190.387L252.87 192.392C252.87 192.392 252.87 192.392 252.87 192.392C257.485 192.84 259.481 186.701 255.483 184.35C255.483 184.35 255.483 184.35 255.483 184.35L237.537 173.79C233.974 171.694 234.827 166.317 238.862 165.425L259.193 160.927C263.72 159.925 263.72 153.472 259.193 152.47L238.862 147.974C234.826 147.081 233.975 141.703 237.537 139.607L255.483 129.048C259.481 126.696 257.485 120.559 252.87 121.005L232.144 123.01C228.03 123.408 225.558 118.558 228.299 115.463L242.104 99.8743C245.179 96.4032 241.384 91.1827 237.134 93.033L218.042 101.345C214.252 102.995 210.402 99.1461 212.053 95.356L220.365 76.264C222.215 72.0127 216.994 68.2196 213.523 71.2926L197.934 85.098C194.84 87.8385 189.989 85.3675 190.387 81.2522L192.393 60.5268C192.839 55.9123 186.701 53.9174 184.35 57.9136L173.79 75.8606C171.694 79.4229 166.317 78.5713 165.424 74.5354L160.927 54.2039Z" fill="#40464F"/>
</svg>
